<?xml version="1.0" encoding="utf-8"?>
<!-- Generator: Adobe Illustrator 24.1.2, SVG Export Plug-In . SVG Version: 6.00 Build 0)  -->
<svg version="1.1" id="Layer_1" xmlns="http://www.w3.org/2000/svg" xmlns:xlink="http://www.w3.org/1999/xlink" x="0px" y="0px"
	 viewBox="0 0 595.28 841.89" style="enable-background:new 0 0 595.28 841.89;" xml:space="preserve">
<style type="text/css">
	.st0{fill:#FFFFFF;}
</style>
<path class="st0" d="M299.88,425.16c-5.95-8.34-14.06-14.63-23.63-18.28c4.64-4.61,7.5-11.02,7.56-17.73c0-0.16-0.01-0.33-0.02-0.49
	c-0.29-10.35-6.88-19.3-16.57-22.88c-9.41-3.47-20.79-0.32-27.11,7.44c-6.61,8.11-7.8,19.67-2.29,28.72c1.1,1.82,2.42,3.44,3.9,4.86
	c-8.17,2.95-15.6,7.95-21.23,14.75c-7.55,9.12-11.78,20.44-11.82,32.31c-0.01,2.62,2.31,5.12,5,5c2.72-0.12,4.99-2.2,5-5
	c0-1.17,0.04-2.33,0.13-3.49c0.04-0.57,0.1-1.15,0.16-1.72c0.03-0.23,0.06-0.46,0.08-0.68c-0.13,1.41-0.03,0.31,0.02-0.03
	c0.37-2.28,0.91-4.53,1.63-6.73c0.32-0.99,0.69-1.97,1.07-2.94c0.1-0.22,0.2-0.44,0.3-0.66c0.25-0.55,0.52-1.1,0.79-1.64
	c1.02-2,2.19-3.93,3.49-5.76c0.13-0.18,0.25-0.35,0.38-0.53c0.06-0.09,0.65-0.98,0.2-0.28c-0.44,0.7,0.14-0.17,0.22-0.27
	c0.14-0.17,0.27-0.34,0.41-0.51c0.76-0.92,1.57-1.82,2.4-2.68c0.68-0.7,1.39-1.38,2.12-2.04c0.4-0.37,0.82-0.72,1.23-1.07
	c0.21-0.18,0.42-0.35,0.63-0.52c0.13-0.1,0.25-0.21,0.38-0.31c0.42-0.33,0.34-0.27-0.24,0.18c0.14-0.31,0.91-0.67,1.19-0.87
	c0.45-0.32,0.9-0.62,1.36-0.92c0.96-0.63,1.95-1.22,2.96-1.78c0.92-0.5,1.85-0.98,2.8-1.42c0.25-0.12,0.5-0.23,0.75-0.34
	c0.83-0.38-0.23,0.06-0.28,0.11c0.35-0.34,1.39-0.55,1.86-0.72c2.11-0.76,4.27-1.37,6.47-1.81c0.56-0.11,1.12-0.21,1.68-0.3
	c0.21-0.03,0.41-0.06,0.62-0.09c0.03,0,0.06,0,0.09-0.01c1.15-0.11,2.3-0.22,3.46-0.26c0.05,0,0.1,0,0.15,0
	c1.24,0.1,2.49,0.11,3.75,0.03c1.02,0.05,2.04,0.12,3.06,0.24c0.16,0.02,1.15,0.29,0.36,0.04c-0.8-0.25,0.21,0.04,0.35,0.06
	c0.56,0.09,1.12,0.19,1.68,0.3c1.1,0.22,2.2,0.48,3.28,0.79c1.07,0.3,2.14,0.64,3.19,1.02c0.52,0.19,1.04,0.4,1.55,0.6
	c0.11,0.04,0.18,0.06,0.23,0.07c0.15,0.08,0.29,0.17,0.4,0.22c2,0.92,3.93,1.98,5.77,3.17c0.46,0.3,0.91,0.6,1.36,0.92
	c0.27,0.19,1.18,0.64,1.32,0.97c-0.16-0.13-0.33-0.26-0.49-0.38c0.13,0.1,0.26,0.2,0.39,0.3c0.21,0.17,0.42,0.34,0.63,0.52
	c0.46,0.38,0.92,0.77,1.36,1.17c1.62,1.46,3.14,3.03,4.54,4.7c0.17,0.21,0.35,0.42,0.52,0.63c0.1,0.13,0.2,0.26,0.31,0.38
	c0.23,0.29,0.14,0.17-0.28-0.36c0.38,0.18,0.92,1.25,1.15,1.59c0.68,0.99,1.33,2.01,1.93,3.05c0.61,1.05,1.17,2.12,1.69,3.21
	c0.14,0.3,0.28,0.6,0.42,0.9c0.04,0.1,0.09,0.2,0.13,0.3c0.22,0.5,0.18,0.4-0.11-0.28c0.34,0.35,0.5,1.26,0.67,1.7
	c0.87,2.37,1.54,4.81,2,7.3c0.11,0.59,0.39,1.43,0.33,2.02c0.01-0.1-0.14-1.23-0.05-0.31c0.03,0.34,0.08,0.69,0.11,1.03
	c0.13,1.39,0.19,2.79,0.19,4.18c0.01,2.62,2.29,5.12,5,5c2.7-0.12,5.01-2.2,5-5C308.88,443.68,305.8,433.46,299.88,425.16z
	 M264.44,402.95c0.15-0.06,0.28-0.11,0.37-0.16C264.65,402.88,264.47,402.97,264.44,402.95z M272.59,395.13
	c0.03-0.01,0.11-0.16,0.17-0.3C272.7,395,272.64,395.12,272.59,395.13z M273.74,387.37c-0.01-0.1-0.02-0.17-0.03-0.25
	C273.74,387.25,273.75,387.37,273.74,387.37z M268.4,377.67c-0.14-0.11-0.25-0.2-0.33-0.26C268.21,377.5,268.39,377.62,268.4,377.67
	z M264.8,375.48c-0.17-0.06-0.36-0.14-0.36-0.14C264.47,375.33,264.63,375.4,264.8,375.48z M260.99,374.44
	c-0.09-0.01-0.17-0.01-0.17,0C260.83,374.42,260.9,374.43,260.99,374.44z M247.55,379.79c0,0-0.07,0.08-0.15,0.18
	C247.46,379.87,247.52,379.79,247.55,379.79z M244.33,387.37c-0.13-0.1,0.28-1.43,0.34-1.66c0.08-0.33,0.5-2.47,0.82-2.54
	c0,0-0.54,1.15-0.11,0.28c0.1-0.2,0.19-0.4,0.29-0.6c0.24-0.49,0.51-0.97,0.8-1.44c0.23-0.37,0.47-0.74,0.72-1.1
	c0.02-0.03,0.07-0.1,0.12-0.18c0.03-0.03,0.05-0.06,0.09-0.1c0.62-0.69,1.23-1.37,1.92-2c0.2-0.18,0.41-0.35,0.62-0.54
	c0.16-0.14,0.19-0.19,0.18-0.2c0.25-0.16,0.53-0.31,0.65-0.38c0.78-0.51,1.6-0.95,2.44-1.36c0.2-0.1,0.85-0.25,0.16-0.08
	c-0.8,0.2,0.21-0.07,0.33-0.11c0.42-0.15,0.84-0.29,1.27-0.41c0.43-0.12,0.87-0.23,1.31-0.32c0.22-0.05,0.44-0.08,0.67-0.13
	c0.01,0,0.01,0,0.01,0c0.93-0.08,1.86-0.14,2.8-0.11c0.46,0.02,0.92,0.06,1.38,0.1c0.07,0.01,0.1,0.01,0.15,0.01
	c0.18,0.04,0.35,0.09,0.38,0.1c1.05,0.21,2.05,0.54,3.06,0.88c0.1,0.03,0.16,0.05,0.21,0.07c0.19,0.1,0.37,0.2,0.41,0.22
	c0.44,0.22,0.87,0.46,1.3,0.71c0.42,0.25,0.84,0.52,1.24,0.8c0.01,0,0.05,0.03,0.12,0.07c0.02,0.01,0.02,0.02,0.04,0.03
	c0.13,0.1,0.25,0.21,0.38,0.31c0.79,0.68,1.49,1.42,2.18,2.2c0.05,0.06,0.15,0.15,0.23,0.22c-0.03-0.03-0.06-0.05-0.11-0.09
	c-0.56-0.48,0.07,0.1,0.2,0.28c0.31,0.45,0.61,0.91,0.89,1.38c0.28,0.47,0.54,0.96,0.77,1.45c0.02,0.04,0.08,0.15,0.13,0.26
	c0.02,0.06,0.04,0.13,0.07,0.23c0.35,1.01,0.66,2.02,0.86,3.07c0-0.02,0.03,0.14,0.07,0.31c0.01,0.13,0.03,0.26,0.04,0.39
	c0.05,0.58,0.07,1.16,0.08,1.74c0,0.47-0.02,0.93-0.05,1.4c-0.02,0.23-0.04,0.46-0.06,0.69c-0.08,1,0.04-0.31,0.04-0.31
	c0.24,0.18-0.6,2.64-0.7,2.95c-0.03,0.1-0.11,0.43-0.21,0.73c-0.01,0.01-0.05,0.08-0.13,0.24c-0.1,0.2-0.19,0.4-0.29,0.6
	c-0.44,0.88-0.95,1.73-1.51,2.54c-0.01,0.01-0.06,0.09-0.12,0.19c-0.03,0.03-0.05,0.05-0.09,0.09c-0.29,0.32-0.57,0.66-0.87,0.98
	c-0.3,0.32-0.61,0.62-0.93,0.92c-0.2,0.18-0.41,0.36-0.61,0.54c-0.6,0.54-0.14,0.28,0.05,0.05c-0.31,0.45-1.77,1.12-2.12,1.32
	c-0.38,0.22-0.77,0.42-1.17,0.61c0,0-0.06,0.03-0.14,0.07c-0.01,0.01-0.02,0.01-0.03,0.01c-0.15,0.06-0.31,0.12-0.47,0.18
	c-0.84,0.3-1.71,0.55-2.58,0.73c-0.2,0.04-0.41,0.08-0.61,0.12c-0.01,0-0.01,0-0.02,0c-1.41-0.06-2.82-0.06-4.23,0
	c-0.13-0.02-0.26-0.03-0.36-0.05c-0.55-0.11-1.1-0.24-1.64-0.39c-0.43-0.12-0.85-0.26-1.27-0.41c0.01,0-0.13-0.04-0.28-0.09
	c-0.02-0.01-0.03-0.02-0.06-0.03c-0.89-0.44-1.76-0.89-2.59-1.43c-0.18-0.12-1.02-0.54-1.07-0.75c0,0.01,0.95,0.8,0.24,0.17
	c-0.16-0.14-0.33-0.28-0.49-0.43c-0.74-0.66-1.38-1.38-2.04-2.11c-0.04-0.04-0.06-0.07-0.09-0.09c-0.06-0.1-0.12-0.18-0.12-0.19
	c-0.25-0.36-0.49-0.72-0.72-1.1c-0.23-0.37-0.44-0.76-0.65-1.15c-0.1-0.19-0.2-0.39-0.29-0.59c-0.07-0.15-0.14-0.3-0.21-0.45
	c-0.15-0.34-0.09-0.2,0.18,0.43c-0.34-0.11-0.73-2.18-0.82-2.54c-0.11-0.43-0.18-0.86-0.27-1.3c-0.02-0.25-0.06-0.51-0.08-0.75
	c-0.07-0.93-0.06-1.86,0-2.79c0.02-0.23,0.04-0.46,0.06-0.69C244.44,386.27,244.28,387.34,244.33,387.37z M256.81,403.8
	c-0.01,0-0.02,0-0.03,0C256.49,403.78,256.61,403.78,256.81,403.8z"/>
</svg>
